<svg width="1082" height="1050" viewBox="0 0 1082 1050" fill="none" xmlns="http://www.w3.org/2000/svg">
<path d="M207.586 3.68652C214.695 2.57816 233.274 2.28365 252.184 2.64844C271.087 3.0131 289.773 4.02573 297.085 5.41504C339.635 13.5044 374.697 25.1895 422.799 47.3525C467.502 67.9477 532.572 113.005 573.618 151.823C614.032 190.044 664.126 238.618 756.286 328.948C803.07 374.805 821.915 389.496 853.568 404.477C879.256 416.632 902.029 422.972 924.956 424.254L926.048 424.312C935.144 424.755 940.36 424.954 944.555 424.301C948.901 423.624 952.087 422.047 957.126 419.388C970.277 412.448 980.817 398.848 988.054 381.202C995.304 363.524 999.334 341.57 999.321 317.54C999.304 281.456 989.446 250.866 966.684 215.793C951.914 193.033 942.018 181.245 917.566 157.211C888.354 128.497 861.689 109.171 829.23 93.2305C799.335 78.5483 773.646 69.4384 743.974 64.6357C714.343 59.8398 680.847 59.3574 635.372 61.8018L618.232 62.7217L618.693 62.2422L618.692 62.2412C621.803 58.996 627.105 55.5506 634.205 52.1494C641.26 48.77 649.914 45.5179 659.566 42.5908C678.875 36.7358 702.015 32.2307 724.031 30.5732C797.71 25.0259 866.836 45.3638 934.193 92.5479C1012.45 147.37 1058.28 209.932 1075.82 285.407C1078.25 295.862 1079.5 314.102 1079.5 332.755C1079.5 351.394 1078.24 370.083 1075.8 381.414C1066.54 424.328 1053.11 450.818 1028.35 475.499C1021.15 482.679 1016.11 487.314 1011.03 491.089C1005.97 494.852 1000.8 497.811 993.294 501.569C929.865 533.345 836.361 518.169 751.197 461.259C725.727 444.239 723.449 442.197 587.637 312.854C494.843 224.482 485.088 215.505 459.457 196.462L456.923 194.585L454.302 192.655C399.356 152.403 350.62 128.442 295.279 114.5C278.703 110.325 271.574 109.447 250.131 109.382L245.645 109.379C232.634 109.396 224.91 109.526 218.686 110.256C213.166 110.903 208.859 112.017 203.171 113.856L200.641 114.689C167.445 125.791 143.82 145.472 129.021 175.681C114.28 205.768 108.391 246.1 110.14 298.39C111.875 350.23 117.887 388.671 132.78 443.229C156.485 530.072 209.821 670.335 278.804 827.322C285.926 843.531 293.181 860.274 296.243 867.544L297.286 870.051C298.329 872.611 299.397 874.958 300.287 876.687C300.727 877.541 301.153 878.299 301.53 878.869C301.712 879.144 301.937 879.456 302.191 879.727C302.316 879.859 302.516 880.054 302.783 880.231C303.003 880.377 303.585 880.726 304.398 880.688L304.407 880.687C305.087 880.652 305.559 880.354 305.689 880.271C305.885 880.146 306.034 880.017 306.124 879.935C306.308 879.765 306.473 879.579 306.601 879.427C306.867 879.109 307.18 878.692 307.515 878.222C308.195 877.267 309.09 875.919 310.132 874.295C311.96 871.445 314.284 867.668 316.769 863.488L317.842 861.674C357.252 794.748 396.973 750.076 443.736 719.807C493.789 687.409 540.564 680.697 593.756 698.14C676.883 725.399 738.51 790.928 772.058 888.271L778.213 906.128L779.975 911.24L782.729 906.587L793.294 888.729C799.115 878.889 813.797 853.528 825.924 832.368C906.758 691.313 910.423 685.485 940.424 649.327C949.501 638.386 960.192 625.491 964.182 620.672C967.067 617.188 970.349 612.558 972.686 608.741C971.863 612.805 970.651 618.082 969.031 624.558C957.379 671.134 936.365 727.475 897.327 816.658C869.459 880.324 851.939 919.47 839.611 944.634C827.271 969.823 820.231 980.789 813.371 988.258C803.407 999.105 790.18 1007.07 776.894 1011.14C763.567 1015.23 750.48 1015.32 740.654 1010.85C733.69 1007.69 728.82 1003.77 723.885 995.546C718.84 987.144 713.775 974.33 706.579 953.346C680.17 876.333 644.934 826.765 599.356 803.8C591.781 799.983 580.353 795.864 569.552 792.713C558.838 789.587 548.31 787.285 542.641 787.319H542.64C534.837 787.367 525.346 790.649 514.937 796.429C504.474 802.238 492.852 810.7 480.729 821.409C465.15 835.172 454.64 848.041 434.935 877.537L432.998 880.444C426.325 890.492 413.881 910.857 402.809 929.502C397.268 938.832 392.059 947.75 388.075 954.755C386.084 958.256 384.393 961.289 383.118 963.66C382.03 965.684 381.184 967.337 380.732 968.392L380.563 968.807C379.811 970.78 377.7 974.98 374.772 980.417C371.876 985.796 368.26 992.238 364.58 998.607C360.9 1004.98 357.165 1011.26 354.03 1016.32C351.046 1021.14 348.707 1024.69 347.478 1026.22L347.247 1026.5C330.041 1046.61 298.874 1053.32 275.131 1042.05C266.558 1037.98 258.37 1029.99 248.04 1013.34C237.711 996.695 225.42 971.692 208.515 933.974C99.3849 690.479 35.9719 519.027 14.7441 410.354C1.38224 341.943 -1.2843 262.098 7.93359 208.433C14.6617 169.255 30.3796 127.824 48.8545 100.365C68.4794 71.194 104.045 41.2616 139.035 24.5518C155.581 16.6496 188.24 6.7042 207.586 3.68652Z" stroke="#26BEFF" stroke-width="5"/>
</svg>
