<svg width="1305" height="1355" viewBox="0 0 1305 1355" fill="none" xmlns="http://www.w3.org/2000/svg">
<rect width="1305" height="1355" fill="white"/>
<path fill-rule="evenodd" clip-rule="evenodd" d="M408.552 154.959C451.34 163.093 486.597 174.852 534.845 197.082C579.828 217.806 645.12 263.029 686.336 302.007C726.767 340.245 776.876 388.832 869.037 479.163C915.766 524.966 934.37 539.419 965.638 554.217C991.507 566.458 1014.27 572.695 1037.17 573.814C1055.56 574.71 1056.85 574.508 1066.96 569.176C1091.87 556.031 1107.85 517.074 1107.82 469.541C1107.8 434.015 1098.13 403.891 1075.59 369.154C1060.94 346.581 1051.17 334.932 1026.81 310.994C997.767 282.443 971.317 263.282 939.128 247.475C879.658 218.268 837.329 211.416 746.506 216.298L723.053 217.558L727.888 212.513C741.566 198.242 790.434 183.423 834.843 180.08C909.162 174.484 978.852 195.024 1046.63 242.501C1125.27 297.593 1171.54 360.636 1189.26 436.841C1194.25 458.335 1194.25 510.751 1189.24 533.941C1179.9 577.211 1166.29 604.173 1141.12 629.27C1126.67 643.669 1120.54 648.228 1105.41 655.805C1040.86 688.143 946.366 672.511 860.809 615.337C835.108 598.164 832.627 595.914 696.913 466.664C601.086 375.403 593.906 368.906 566.437 348.595C510.625 307.331 461.514 282.993 405.669 268.924C388.248 264.537 381.535 263.844 356.648 263.879C330.567 263.913 326.344 264.41 312.433 269.061C247.197 290.877 220.153 346.081 223.639 450.306C225.367 501.935 231.345 540.183 246.192 594.571C269.847 681.232 323.124 821.36 392.093 978.316C400.228 996.83 408.556 1016.09 410.601 1021.11C412.647 1026.13 414.752 1030.22 415.28 1030.19C415.809 1030.16 420.942 1022.16 426.688 1012.4C466.223 945.266 506.188 900.253 553.378 869.708C604.019 836.929 651.575 830.069 705.534 847.764C789.539 875.311 851.668 941.517 885.421 1039.46L891.576 1057.31L902.142 1039.46C907.953 1029.63 922.629 1004.28 934.755 983.125C1015.56 842.12 1019.33 836.088 1049.5 799.731C1058.58 788.79 1069.27 775.897 1073.26 771.078C1077.25 766.262 1081.96 759.27 1083.72 755.544C1089.18 744.035 1088.7 752.195 1082.46 777.164C1070.75 823.952 1049.67 880.451 1010.62 969.66C954.89 1096.97 940.451 1126.45 926.212 1141.95C905.65 1164.33 871.743 1174.73 850.62 1165.13C835.779 1158.39 829.587 1148.07 815.214 1106.16C788.891 1029.4 753.953 980.567 709.231 958.032C694.469 950.594 664.173 941.756 653.655 941.819C639.28 941.907 617.442 954.031 593.385 975.283C577.546 989.274 567.008 1002.32 546.081 1033.83C532.811 1053.81 496.416 1115.09 493.9 1121.7C490.616 1130.31 465.354 1174.04 460.147 1180.13C442.213 1201.09 409.83 1208.07 385.059 1196.31C366.633 1187.56 351.044 1162.43 317.233 1087C208.104 843.501 144.579 671.816 123.29 562.833C109.886 494.203 107.189 414.043 116.47 360.009C123.246 320.55 139.073 278.773 157.78 250.97C177.678 221.392 213.606 191.179 248.958 174.296C265.737 166.282 298.631 156.269 318.2 153.216C332.93 150.919 393.438 152.087 408.552 154.959Z" fill="#26BEFF"/>
</svg>
