<svg width="1024" height="1024" viewBox="0 0 1024 1024" fill="none" xmlns="http://www.w3.org/2000/svg">
<path d="M321 314.5C323.525 314.58 327.269 314.933 331.5 315.704M331.5 315.704C339.147 317.099 348.384 319.858 354.883 324.836C364.5 332 381.608 347.922 397.554 345.211C413.5 342.5 431.5 335 437.5 290C439 281.5 435.5 254 418.5 236.5C404.5 223 374.275 219.5 358 235C352.75 240 329 256 331.5 314.5V315.704Z" stroke="#9B6AF1" stroke-width="5" stroke-linecap="round"/>
<path fill-rule="evenodd" clip-rule="evenodd" d="M382.81 91.0104C365.801 93.1504 347.52 99.9024 333.528 109.213C322.711 116.411 307.936 131.71 299.411 144.54C270.891 187.464 257.2 254.888 259.823 339.496C260.889 373.872 264.057 401.04 270.827 433.856C272.46 441.771 273.579 448.811 273.314 449.502C272.511 451.594 263.206 454.092 256.214 454.092C243.33 454.092 232.956 449.081 225.056 439.041C220.394 433.117 212.689 418.552 212.689 415.665C212.689 414.714 214.005 411.581 215.613 408.702C217.222 405.823 219.306 400.785 220.245 397.506C222 391.383 221.987 387.818 220.094 353.967C219.515 343.61 219.557 343.338 223.202 333.986C227.497 322.965 227.535 318.076 223.369 312.614C213.875 300.167 193.807 305.549 185.647 322.731C183.502 327.248 183.363 327.351 182.641 324.967C182.224 323.592 180.24 316.842 178.232 309.967C173.945 295.294 171.427 290.987 165.439 288.088C160.068 285.488 155.477 285.426 150.073 287.88C141.59 291.732 136.675 303.446 138.427 315.635L139.348 322.04L135.769 318.614C126.949 310.172 116.537 309.017 108.699 315.612C99.456 323.39 100.344 336.308 111.159 351.381L116.46 358.769L111.324 356.378C104.841 353.359 99.952 353.308 95.679 356.217C91.044 359.372 88.632 362.974 88 367.687C86.794 376.675 92.633 384.492 110.527 397.846C120.993 405.656 121.467 406.179 125.522 414.363C133.037 429.529 146.602 440.277 159.968 441.656L165.582 442.236L172.143 453.351C190.718 484.82 215.292 502.29 247.636 507.02C254.845 508.074 277.79 507.907 286.145 506.74C287.825 506.505 288.489 507.875 290.863 516.467C298.1 542.671 301.191 559.565 307.228 605.932C317.202 682.531 334.921 724.921 382.292 785.513C387.902 792.688 393.211 799.155 394.09 799.885C394.97 800.615 395.689 801.607 395.689 802.089C395.689 802.572 390.627 802.974 384.439 802.982C371.367 802.999 363.467 804.611 353.357 809.323C329.62 820.388 310.979 847.231 314.767 864.894C319.36 886.312 358.919 892.043 415.22 879.445C438.447 874.248 461.574 866.093 466.998 861.188C471.187 857.4 473.158 851.836 473.097 843.967C473.049 837.655 472.376 834.729 468.848 825.494C460.745 804.283 460.896 800.113 471.518 751.967C474.248 739.592 477.687 723.842 479.159 716.967C485.031 689.552 494.578 661.209 502.26 648.392C507.608 639.467 508.036 639.161 512.098 641.348C517.313 644.156 525.448 652.755 529.802 660.061C537.99 673.8 543.475 689.841 554.569 732.485C557.862 745.145 563.471 764.561 567.032 775.632C577.417 807.911 578.149 811.317 578.17 827.467C578.188 841.076 578.081 841.788 574.338 852.967C570.905 863.22 570.533 865.285 570.91 872.005C571.432 881.302 574.776 888.062 582.116 894.661C599.587 910.369 637.792 916.901 671.689 909.974C690.194 906.193 699.009 900.292 702.218 889.535C704.096 883.241 704.075 878.557 702.13 870.008C700.186 861.462 695.341 853.257 687.603 845.411C680.776 838.488 673.969 834.084 663.533 829.837C655.424 826.536 654.726 825.859 654.704 821.254C654.682 816.577 657.62 809.822 667.582 791.64C678.829 771.114 686.352 756.083 691.983 742.882C703.555 715.758 719.576 669.383 732.201 626.467C736.407 612.167 742.118 594.392 744.892 586.967C749.947 573.432 762.937 544.319 764.714 542.542C766.125 541.131 779.549 556.323 789.833 570.967C795.424 578.929 806.689 598.164 806.689 599.749C806.689 600.385 805.731 602.743 804.56 604.99C801.885 610.121 801.108 616.676 802.627 621.28C803.631 624.321 803.52 625.379 801.854 628.649C798.4 635.432 796.658 643.161 795.217 658.111C793.702 673.815 792.59 677.582 787.329 684.825C785.475 687.378 783.412 691.156 782.745 693.22C778.083 707.646 797.001 721.004 812.27 714.07C819.749 710.673 827.158 701.104 832.693 687.696C835.458 680.996 836.302 681.258 839.665 689.862C843.17 698.829 843.371 708.636 840.309 721.297C836.356 737.636 836.994 743.225 843.508 749.348C848.813 754.336 859.854 755.772 866.086 752.285C867.119 751.706 870.924 751.466 874.729 751.738C880.343 752.139 882.317 751.842 886.064 750.028C891.4 747.445 895.721 742.811 899.204 735.938C900.941 732.51 902.712 730.556 904.952 729.598C912.461 726.386 918.074 716.23 919.905 702.546C921.94 687.336 917.848 661.204 910.75 644.077C904.657 629.378 890.769 612.087 877.979 603.278C873.921 600.483 872.684 599.033 872.667 597.051C872.609 590.164 866.083 582.064 858.849 579.897C855.548 578.908 854.518 577.735 850.258 570.12C836.659 545.81 818.212 520.729 795.427 495.568L790.085 489.668L799.946 464.068C819.019 414.548 824.059 398.941 830.144 370.556C843.303 309.168 841.829 257.534 825.597 211.324C814.909 180.897 792.529 151.948 765.829 134.015C739.385 116.254 702.754 107.595 664.588 110.084C641.544 111.587 624.29 115.342 589.52 126.422C570.88 132.361 568.191 132.967 560.465 132.967C542.381 132.967 521.763 127.202 490.689 113.457C456.824 98.4774 429.631 91.2924 403.805 90.5004C396.316 90.2704 386.868 90.5004 382.81 91.0104ZM421.189 97.4764C433.172 99.2714 454.95 105.023 466.689 109.494C471.364 111.274 482.839 116.096 492.189 120.209C511.63 128.76 523.774 132.973 538.714 136.35L549.189 138.718L544.689 139.953C526.85 144.853 498.365 148.797 490.189 147.499C486.905 146.978 486.422 147.098 487.49 148.166C488.467 149.143 493.199 149.446 506.49 149.381C531.834 149.259 543.09 146.977 587.726 132.915C627.909 120.256 646.383 116.358 671.285 115.282C688.402 114.543 703.976 116.077 719.189 119.998C746.861 127.131 766.93 138.913 786.817 159.7C806.367 180.135 818.397 202.744 826.105 233.541C836.195 273.856 835.924 313.71 825.205 365.75C818.99 395.925 814.672 409.324 792.192 468.19L785.423 485.913L780.53 481.514C772.507 474.301 766.878 474.295 758.874 481.49C750.455 489.06 745.49 504.027 747.603 515.462C749.093 523.522 751.104 527.473 756.27 532.494L760.971 537.062L753.423 552.765C741.252 578.084 736.707 590.632 723.647 634.967C707.107 691.113 688.096 740.679 670.143 774.467C652.317 808.014 649.421 814.394 649.335 820.295L649.257 825.716L639.223 825.657C633.704 825.625 626.714 826.178 623.689 826.886C617.69 828.288 604.689 833.828 604.689 834.981C604.689 835.375 607.727 834.841 611.439 833.792C638.366 826.187 664.821 831.757 682.943 848.847C692.386 857.753 696.885 866.877 697.487 878.342C697.854 885.341 697.596 887.229 695.785 890.779C690.219 901.689 669.088 907.656 639.382 906.706C614.84 905.921 597.549 900.758 586.3 890.855C575.438 881.295 573.951 871.96 580.265 852.967C583.892 842.058 584.091 840.798 584.135 828.467C584.192 812.913 583.223 808.257 573.523 777.467C569.712 765.367 563.27 742.642 559.21 726.967C542.374 661.982 532.422 644.053 506.181 631.431C502.201 629.517 495.5 627.07 491.29 625.993C482.299 623.693 465.044 622.115 466.012 623.68C466.359 624.243 468.949 625.009 471.766 625.383C480.404 626.529 503.689 634.744 503.689 636.646C503.689 636.939 502.533 638.552 501.121 640.23C499.708 641.909 496.844 646.699 494.757 650.875C485.525 669.337 478.709 691.116 471.725 724.467C469.421 735.467 465.985 751.095 464.09 759.196C459.201 780.085 457.452 792.801 457.931 803.967C458.285 812.212 458.903 814.92 462.607 824.467C469.502 842.236 469.195 852.622 461.617 858.018C453.827 863.565 418.675 873.734 392.817 877.921C352.61 884.432 323.447 878.802 320.174 863.899C317.958 853.809 327.477 835.446 340.828 824.059C350.423 815.875 364.676 809.875 377.689 808.542C386.024 807.688 399.536 809.246 412.054 812.504C417.479 813.916 422.083 814.906 422.286 814.704C422.488 814.501 419.458 812.791 415.552 810.902C407.009 806.769 402.037 801.701 385.154 779.911C341.395 723.437 323.26 680.4 313.755 610.467C312.634 602.217 310.558 586.917 309.142 576.467C306.004 553.302 303.375 540.614 296.194 513.967C277.959 446.298 270.393 407.581 266.587 362.467C264.944 342.994 264.915 290.322 266.54 275.967C273.302 216.225 284.851 176.941 304.197 147.881C327.154 113.397 358.269 96.3344 398.689 96.0634C405.564 96.0174 415.689 96.6534 421.189 97.4764ZM390.189 150.435C368.816 155.096 346.171 172.792 341.266 188.666C340.793 190.198 341.203 191.481 342.62 192.898C345.108 195.386 346.94 194.831 355.095 189.118C367.568 180.381 382.326 176.153 403.055 175.379C419.478 174.766 423.144 173.101 424.343 165.711C425.389 159.267 419.582 152.363 411.189 150.071C405.992 148.651 397.708 148.795 390.189 150.435ZM413.466 154.709C417.926 156.766 420.689 160.557 420.689 164.617C420.689 170.353 417.296 171.598 399.896 172.246C379.023 173.023 367.743 176.505 352.689 186.817C345.926 191.45 345.157 191.755 344.865 189.925C344.138 185.378 355.129 171.873 365.142 165.01C381.14 154.045 402.265 149.541 413.466 154.709ZM594.11 165.863C586.596 169.276 583.251 176.135 586.136 182.214C588.606 187.419 592.199 188.915 604.904 190.027C627.073 191.968 640.843 196.897 655.76 208.229C670.075 219.106 670.678 219.467 672.524 218.274C676.71 215.569 671.8 202.046 663 192.042C656.887 185.093 644.507 175.917 635.215 171.447C620.457 164.349 602.743 161.943 594.11 165.863ZM618.225 168.976C642.063 175.073 665.678 194.496 670.749 212.175C671.69 215.457 670.473 216.625 668.552 214.283C665.91 211.06 652.587 201.008 646.297 197.49C634.451 190.866 622.486 187.647 603.61 186.007C592.113 185.009 588.689 183.093 588.689 177.661C588.689 174.298 594.147 168.403 597.936 167.673C603.37 166.627 610.941 167.113 618.225 168.976ZM164.481 293.566C168.024 295.888 171.159 303.66 175.609 321.152C177.795 329.745 180.732 339.506 182.136 342.842C185.926 351.847 185.618 354.003 179.851 358.831C171.47 365.848 165.632 380.435 167.151 390.563C168.033 396.441 169.689 397.188 169.689 391.708C169.689 386.842 171.964 378.324 174.696 372.958C175.679 371.029 179.005 366.624 182.086 363.171C185.168 359.717 187.746 356.121 187.815 355.179C187.885 354.237 187.998 348.067 188.065 341.467C188.179 330.478 188.417 329.034 190.899 324.329C197.627 311.573 210.637 307.084 218.15 314.927C221.857 318.795 221.805 323.234 217.939 332.967C213.554 344.005 213.356 346.511 215.316 366.135C216.811 381.111 216.901 385.126 215.877 391.216C214.175 401.341 209.889 409.479 201.563 418.395C194.366 426.101 194.244 428.229 201.289 423.162C203.434 421.619 205.731 420.03 206.394 419.631C207.205 419.142 208.726 421.342 211.044 426.36C215.319 435.613 219.06 441.087 225.325 447.258C237.148 458.904 255.326 462.897 270.417 457.162L275.435 455.256L276.631 460.861C277.289 463.944 279.826 474.074 282.27 483.371C284.714 492.669 286.595 500.39 286.451 500.529C286.307 500.668 280.919 501.323 274.478 501.984C240.978 505.425 211.055 493.822 190.264 469.332C185.085 463.231 171.689 443.155 171.689 441.495C171.689 441.196 173.489 440.231 175.689 439.35C177.889 438.47 179.689 437.461 179.689 437.108C179.689 436.756 174.402 436.467 167.939 436.467C156.465 436.467 156.041 436.387 149.897 433.055C141.787 428.658 134.164 420.375 128.879 410.215C124.91 402.587 124.105 401.728 113.197 393.494C95.792 380.356 90.898 373.189 94.1 365.526C96.173 360.564 101.225 358.212 106.447 359.776C109.999 360.841 121.76 368.911 129.509 375.601L132.829 378.467L129.642 385.266C127.889 389.006 126.692 392.303 126.982 392.593C127.272 392.884 129.432 390.291 131.781 386.831C141.311 372.798 158.872 357.381 171.017 352.386C173.582 351.33 175.683 350.094 175.685 349.638C175.69 348.486 170.283 349.732 163.385 352.472L157.58 354.778L155.309 349.623C148.349 333.822 143.689 317.844 143.689 309.775C143.689 295.738 154.697 287.156 164.481 293.566ZM126.489 318.382C131.708 321.116 138.714 330.206 147.364 345.467C149.546 349.317 151.912 353.386 152.621 354.51C153.805 356.385 153.144 357.31 144.574 365.758L135.237 374.963L132.713 371.746C124.816 361.678 112.391 343.983 110.554 340.188C107.815 334.53 107.071 327.873 108.731 323.865C111.229 317.834 120.172 315.072 126.489 318.382ZM368.189 370.371C359.611 373.095 346.165 381.725 347.837 383.434C348.193 383.798 351.741 382.455 355.721 380.451C361.672 377.454 363.173 377.043 364.17 378.137C364.837 378.868 366.858 386.892 368.66 395.967C377.553 440.739 389.535 468.333 410.681 492.743C440.032 526.624 480.017 538.037 522.189 524.572C540.345 518.776 556.202 508.353 572.562 491.466C594.024 469.311 607.774 443.965 618.29 407.174C618.535 406.317 620.467 407.245 624.015 409.924C626.961 412.147 629.667 413.967 630.03 413.967C634.676 413.967 613.679 394.063 603.617 388.93C597.04 385.575 595.648 386.502 600.689 390.88L605.189 394.787L600.189 396.988C571.13 409.779 532.821 415.811 487.834 414.678C451.441 413.762 426.381 408.471 399.167 395.957C386.946 390.338 367.689 377.539 367.689 375.036C367.689 374.597 369.709 373.467 372.179 372.524C374.648 371.581 376.925 370.395 377.238 369.888C378.04 368.59 372.94 368.862 368.189 370.371ZM379.799 390.095L384.409 393.092L385.007 400.223C386.42 417.078 399.143 430.877 415.689 433.502C419.165 434.054 420.911 435.057 423.363 437.912C431.292 447.144 453.38 453.506 465.628 450.087C467.187 449.651 469.414 450.071 471.798 451.251C485.409 457.985 518.362 454.786 532.215 445.385C535.112 443.419 536.191 443.139 537.305 444.063C539.447 445.841 551.864 446.388 558.923 445.015C581.942 440.541 596.778 427.563 599.863 409.202C600.982 402.543 601.37 401.763 604.465 399.937L607.845 397.942L610.767 400.023C614.218 402.48 614.23 402.599 611.815 410.97C605.953 431.299 594.213 456.152 584.125 469.59L581.781 472.713L575.91 469.917C557.995 461.384 534.871 460.837 517.708 468.539L511.747 471.214L507.182 469.069C495.858 463.746 481.256 461.913 469.689 464.364C449.949 468.545 436.434 481.357 433.53 498.642C432.358 505.616 432.263 505.782 430.256 504.381C425.86 501.313 414.177 489.106 408.372 481.514C397.707 467.568 389.094 450.849 382.333 430.967C379.361 422.225 369.689 385.936 369.689 383.524C369.689 383.126 370.927 383.767 372.439 384.949C373.951 386.13 377.264 388.446 379.799 390.095ZM398.689 400.603C403.364 402.872 410.061 405.764 413.57 407.03L419.952 409.331L419.32 416.8C418.973 420.908 418.689 425.551 418.689 427.118C418.689 429.562 418.298 429.966 415.939 429.957C408.644 429.931 395.967 420.818 391.901 412.677C388.427 405.721 386.878 394.929 389.531 396.169C389.893 396.338 394.014 398.333 398.689 400.603ZM594.669 415.291C588.95 430.576 569.064 442.11 548.198 442.244C537.46 442.314 537.042 441.89 536.196 430.061C535.804 424.587 535.74 419.693 536.055 419.184C536.369 418.676 539.678 417.969 543.407 417.614C554.088 416.596 572.774 412.386 584.992 408.244L596.189 404.449L596.489 407.035C596.655 408.458 595.835 412.173 594.669 415.291ZM432.428 413.111C436.696 414.291 446.489 416.237 454.189 417.437C467.95 419.582 468.183 419.66 467.831 422.043C467.634 423.376 467.184 429.417 466.831 435.467L466.189 446.467L455.689 446.398C443.801 446.319 436.863 444.26 429.407 438.595C422.576 433.405 421.28 430.033 422.142 419.693C422.541 414.893 423.273 410.967 423.768 410.967C424.262 410.967 428.159 411.932 432.428 413.111ZM506.689 420.427C513.564 420.142 522.242 419.649 525.973 419.333L532.756 418.757L532.473 430.095L532.189 441.432L527.931 443.779C519.068 448.664 510.371 450.406 494.689 450.438C478.597 450.47 471.407 448.804 470.118 444.742C469.515 442.842 470.458 421.165 471.196 419.96C471.367 419.681 476.61 419.789 482.848 420.2C489.085 420.61 499.814 420.713 506.689 420.427ZM500.189 469.893C503.489 471.046 506.728 472.185 507.386 472.426C508.051 472.669 505.385 475.966 501.386 479.847C494.217 486.803 489.631 492.967 491.624 492.967C492.2 492.967 493.238 492.028 493.931 490.88C496.172 487.163 510.001 476.732 517.189 473.337C526.993 468.705 534.649 466.967 545.239 466.967C555.134 466.967 566.395 469.336 574.908 473.209L579.873 475.467L572.778 483.66C554.801 504.419 532.515 517.869 507.563 523.02C499.059 524.776 494.936 525.074 484.689 524.673C469.518 524.08 458.569 521.148 445.189 514.094L436.189 509.349L436.441 502.994C437.047 487.711 449.957 473.5 467.794 468.483C475.368 466.352 492.142 467.082 500.189 469.893ZM785.738 493.617C808.093 516.611 832.139 548.409 845.176 572.217L848.873 578.967L845.531 578.979C837.189 579.008 824.521 584.312 816.295 591.22L811.401 595.329L809.795 593.208C808.912 592.042 805.939 586.984 803.189 581.969C793.485 564.271 775.273 542.174 761.087 530.886C753.767 525.061 751.689 520.786 751.689 511.552C751.689 498.59 757.981 485.529 765.943 481.964C771.488 479.482 772.674 480.18 785.738 493.617ZM527.189 547.595C524.989 548.413 518.464 550.28 512.689 551.745C503.251 554.139 500.47 554.4 485.189 554.324C471.649 554.256 466.612 553.833 460.439 552.241C446.364 548.611 452.835 552.567 469.272 557.641C473.865 559.058 478.322 559.453 489.189 559.404C501.74 559.347 504.069 559.051 511.689 556.537C520.367 553.675 527.614 550.346 531.189 547.579C533.671 545.657 532.387 545.663 527.189 547.595ZM859.29 586.016C863.769 588.184 866.161 591.016 867.28 595.473C867.91 597.983 867.781 598.13 865.575 597.423C861.768 596.203 856.338 595.017 854.439 594.991C850.988 594.944 852.785 596.632 857.939 598.279C874.126 603.451 892.562 620.558 902.362 639.501C913.37 660.778 918.228 693.98 912.818 710.967C910.957 716.812 905.706 724.967 903.804 724.967C903.398 724.967 903.638 721.704 904.337 717.717C905.037 713.73 905.607 707.092 905.603 702.967C905.596 694.473 902.573 669.518 901.41 668.355C900.99 667.935 900.727 677.463 900.827 689.529C901.021 713.104 900.016 720.617 895.216 731.467C890.999 740.999 883.705 746.967 876.27 746.967H872.772L876.761 739.572C883.437 727.194 884.505 718.297 883.023 687.391C882.411 674.639 882.253 673.785 881.099 676.983C880.34 679.084 879.811 685.836 879.765 693.993C879.632 717.624 877.223 729.784 870.644 740.037C866.284 746.831 861.935 749.341 855.578 748.73C851.876 748.375 849.835 747.523 847.636 745.416C842.48 740.476 842.22 736.375 846.124 721.507C849.85 707.316 847.212 688.736 840.159 679.496C836.817 675.117 836.725 674.769 837.727 670.296C839.179 663.817 837.437 662.698 835.198 668.671C830.351 681.599 820.504 700.204 816.265 704.444C809.351 711.357 801.703 712.493 793.915 707.763C786.618 703.331 785.956 696.943 791.853 687.872C797.387 679.36 799.383 672.549 800.662 657.811C801.935 643.152 802.799 639.631 807.354 630.524C811.521 622.195 813.473 619.275 819.967 611.665C822.69 608.473 824.673 605.617 824.374 605.318C823.51 604.455 815.429 610.405 811.384 614.882C809.355 617.129 807.407 618.967 807.056 618.967C805.647 618.967 807.852 609.365 810.167 605.414C814.906 597.328 826.412 588.794 837.189 585.371C843.659 583.316 854.358 583.629 859.29 586.016Z" fill="#9B6AF1"/>
<path d="M583 363C566.5 361.167 534.6 348.2 539 311C540.833 292.167 553.1 252.3 587.5 243.5C594 243.5 633 227 660 292.5C661.5 297.5 663 305 655.5 342.5" stroke="#9B6AF1" stroke-width="5" stroke-linecap="round"/>
<path d="M578.5 367C591.667 357.333 627.5 339.8 665.5 347" stroke="#9B6AF1" stroke-width="5" stroke-linecap="round"/>
</svg>
